<svg id="Capa_1" enable-background="new 0 0 512 512" height="512" viewBox="0 0 512 512" width="512" xmlns="http://www.w3.org/2000/svg"><g><path d="m41.245 37.5v336.968c0 16.569 13.431 30 30 30h369.51c16.569 0 30-13.431 30-30v-336.968c0-16.569-13.431-30-30-30h-369.51c-16.569 0-30 13.431-30 30z" fill="#e8edf2"/><path d="m440.755 7.5h-27.027c16.569 0 30 13.431 30 30v336.968c0 16.569-13.431 30-30 30h27.027c16.569 0 30-13.431 30-30v-336.968c0-16.569-13.431-30-30-30z" fill="#c5d3dd"/><path d="m440.755 7.5h-369.51c-16.569 0-30 13.431-30 30v40.5h429.51v-40.5c0-16.569-13.431-30-30-30z" fill="#01c0fa"/><path d="m440.755 7.5h-27.027c16.569 0 30 13.431 30 30v40.5h27.027v-40.5c0-16.569-13.431-30-30-30z" fill="#0290cf"/><circle cx="95.856" cy="42.75" fill="#01c0fa" r="12.612"/><circle cx="148.745" cy="42.75" fill="#fedf30" r="12.612"/><circle cx="201.633" cy="42.75" fill="#fe9738" r="12.612"/><path d="m321.115 504.5h-130.23c-7.627 0-13.81-6.183-13.81-13.81v-116.23c0-7.627 6.183-13.81 13.81-13.81h37.825l19.441-26.927c3.864-5.352 11.834-5.352 15.699 0l19.441 26.927h37.824c7.627 0 13.81 6.183 13.81 13.81v116.23c0 7.627-6.183 13.81-13.81 13.81z" fill="#fe9738"/><path d="m404.936 249.488h-297.872c-5.523 0-10-4.477-10-10v-117.171c0-5.523 4.477-10 10-10h297.871c5.523 0 10 4.477 10 10v117.171c.001 5.523-4.477 10-9.999 10z" fill="#c5d3dd"/><g><path d="m212.097 137h87.805v87.805h-87.805z" fill="#01c0fa"/><path d="m262.032 179.54-15.097 26.731-5.949-10.304c-2.72-4.711-9.52-4.711-12.24 0l-16.65 28.838h24.371 21.168 42.266l-25.564-45.265c-2.703-4.789-9.6-4.789-12.305 0z" fill="#596c76"/></g><g><path d="m440.76 0h-369.52c-20.678 0-37.5 16.822-37.5 37.5v134.15c0 4.143 3.358 7.5 7.5 7.5s7.5-3.357 7.5-7.5v-86.15h414.52v288.97c0 12.406-10.094 22.5-22.5 22.5h-98.335v-22.51c0-11.75-9.56-21.31-21.311-21.31h-33.988l-17.195-23.816c-3.221-4.461-8.428-7.125-13.93-7.125-5.501 0-10.709 2.663-13.93 7.124l-17.195 23.817h-33.989c-11.75 0-21.31 9.56-21.31 21.31v22.51h-98.337c-12.407 0-22.5-10.094-22.5-22.5v-172.82c0-4.143-3.358-7.5-7.5-7.5s-7.5 3.357-7.5 7.5v172.82c0 20.678 16.822 37.5 37.5 37.5h98.335v78.72c0 11.751 9.56 21.311 21.31 21.311h130.229c11.751 0 21.311-9.56 21.311-21.311v-78.72h98.335c20.678 0 37.5-16.822 37.5-37.5v-336.97c0-20.678-16.822-37.5-37.5-37.5zm-119.646 497h-130.229c-3.479 0-6.31-2.831-6.31-6.311v-86.123c0-.032.005-.064.005-.097s-.004-.064-.005-.097v-29.912c0-3.479 2.831-6.31 6.31-6.31h37.825c2.409 0 4.671-1.157 6.081-3.109l19.44-26.927c.568-.787 1.353-.905 1.77-.905s1.2.118 1.768.905l19.44 26.927c1.41 1.952 3.672 3.109 6.081 3.109h37.824c3.479 0 6.311 2.83 6.311 6.31v29.913c0 .032-.005.064-.005.097s.004.064.005.097v86.123c0 3.479-2.831 6.31-6.311 6.31zm-272.374-426.5v-33c0-12.406 10.093-22.5 22.5-22.5h369.52c12.406 0 22.5 10.094 22.5 22.5v33z"/><path d="m95.856 22.639c-11.09 0-20.112 9.021-20.112 20.111s9.022 20.111 20.112 20.111 20.112-9.021 20.112-20.111-9.022-20.111-20.112-20.111zm0 25.222c-2.819 0-5.112-2.293-5.112-5.111s2.293-5.111 5.112-5.111 5.112 2.293 5.112 5.111-2.293 5.111-5.112 5.111z"/><path d="m148.745 22.639c-11.089 0-20.111 9.021-20.111 20.111s9.022 20.111 20.111 20.111c11.09 0 20.112-9.021 20.112-20.111s-9.023-20.111-20.112-20.111zm0 25.222c-2.818 0-5.111-2.293-5.111-5.111s2.293-5.111 5.111-5.111c2.819 0 5.112 2.293 5.112 5.111s-2.294 5.111-5.112 5.111z"/><path d="m201.633 22.639c-11.09 0-20.112 9.021-20.112 20.111s9.022 20.111 20.112 20.111c11.089 0 20.111-9.021 20.111-20.111s-9.021-20.111-20.111-20.111zm0 25.222c-2.819 0-5.112-2.293-5.112-5.111s2.293-5.111 5.112-5.111c2.818 0 5.111 2.293 5.111 5.111s-2.292 5.111-5.111 5.111z"/><path d="m237.723 448.646-24.891-18.632 24.891-18.633c3.316-2.482 3.992-7.183 1.509-10.498-2.482-3.316-7.182-3.991-10.499-1.51l-32.912 24.637c-1.892 1.416-3.005 3.641-3.005 6.004s1.114 4.588 3.005 6.004l32.912 24.636c1.348 1.01 2.925 1.497 4.489 1.496 2.283 0 4.537-1.038 6.01-3.006 2.483-3.316 1.807-8.017-1.509-10.498z"/><path d="m316.177 424.01-32.911-24.637c-3.315-2.483-8.017-1.807-10.498 1.51-2.482 3.315-1.807 8.016 1.51 10.498l24.89 18.633-24.89 18.632c-3.316 2.482-3.992 7.183-1.51 10.498 1.473 1.969 3.727 3.007 6.01 3.006 1.563 0 3.141-.487 4.488-1.496l32.911-24.636c1.892-1.416 3.006-3.641 3.006-6.004s-1.114-4.588-3.006-6.004z"/><path d="m262.774 380.584c-4.103-.557-7.887 2.308-8.449 6.412l-11.512 83.997c-.563 4.104 2.309 7.887 6.412 8.449.346.047.688.07 1.028.07 3.69 0 6.906-2.725 7.421-6.482l11.513-83.997c.562-4.103-2.309-7.887-6.413-8.449z"/><path d="m307.402 224.671v-87.671c0-4.143-3.357-7.5-7.5-7.5h-87.805c-4.142 0-7.5 3.357-7.5 7.5.001 15.869-.006 87.454.01 88.006.01.381.023.492.064.797.038.28.06.421.141.757.058.241.101.401.208.708 1.045 2.999 3.863 5.002 6.992 5.031.029 0 .057.004.085.004.54 0 87.188.005 87.917-.006 4.127-.06 7.388-3.444 7.388-7.494v-.123c0-.002 0-.005 0-.009zm-15-80.171v51.773l-11.533-20.422c-2.579-4.566-7.439-7.403-12.684-7.403s-10.104 2.837-12.684 7.403l-8.666 15.344c-2.718-3.943-7.11-6.262-11.97-6.262-5.266 0-9.981 2.723-12.614 7.283l-2.654 4.597v-52.313zm-5.349 72.805h-61.965l9.779-16.938 5.573 9.653c1.34 2.321 3.816 3.75 6.495 3.75h.036c2.692-.013 5.171-1.468 6.495-3.812l14.72-26.063z"/><path d="m422.436 239.488v-117.171c0-9.649-7.851-17.5-17.5-17.5h-297.872c-9.649 0-17.5 7.851-17.5 17.5v117.171c0 9.649 7.851 17.5 17.5 17.5h297.871c9.65 0 17.501-7.85 17.501-17.5zm-317.872 0v-117.171c0-1.379 1.122-2.5 2.5-2.5h297.871c1.379 0 2.5 1.121 2.5 2.5v117.171c0 1.379-1.121 2.5-2.5 2.5h-297.871c-1.378 0-2.5-1.121-2.5-2.5z"/></g></g></svg>